<svg xmlns="http://www.w3.org/2000/svg" width="441.734" height="417.653" viewBox="0 0 441.734 417.653">
  <g id="empty-favourite" transform="translate(-22.926 -42.247)">
    <g id="freepik--background-complete--inject-2">
      <rect id="Rectangle_1" data-name="Rectangle 1" width="104.15" height="80.33" transform="translate(167.01 378.75)" fill="#ebebeb"/>
      <path id="Path_1" data-name="Path 1" d="M245.07,458.52c-.14,0-.26-17.91-.26-40s.12-40,.26-40,.26,17.91.26,40S245.21,458.52,245.07,458.52Z" fill="#e0e0e0"/>
      <rect id="Rectangle_2" data-name="Rectangle 2" width="7.98" height="9.03" transform="translate(254.35 440.8)" fill="#fafafa"/>
      <rect id="Rectangle_3" data-name="Rectangle 3" width="11.83" height="17.14" transform="translate(198.79 378.96)" fill="#e0e0e0"/>
      <rect id="Rectangle_4" data-name="Rectangle 4" width="11.83" height="17.14" transform="translate(198.79 441.7)" fill="#e0e0e0"/>
      <rect id="Rectangle_5" data-name="Rectangle 5" width="131.33" height="101.29" transform="translate(328.82 358.61)" fill="#ebebeb"/>
      <path id="Path_2" data-name="Path 2" d="M427.24,459.18c-.14,0-.26-22.57-.26-50.42s.12-50.42.26-50.42.26,22.57.26,50.42S427.39,459.18,427.24,459.18Z" fill="#e0e0e0"/>
      <rect id="Rectangle_6" data-name="Rectangle 6" width="10.07" height="11.38" transform="translate(438.94 436.84)" fill="#fafafa"/>
      <rect id="Rectangle_7" data-name="Rectangle 7" width="14.92" height="21.61" transform="translate(368.88 358.87)" fill="#e0e0e0"/>
      <rect id="Rectangle_8" data-name="Rectangle 8" width="14.92" height="21.61" transform="translate(368.88 437.98)" fill="#e0e0e0"/>
      <path id="Path_3" data-name="Path 3" d="M81.46,361.59c5.32-2.74,11.58-3.1,17.48-2.12,3.17.52,6.47,1.47,8.63,3.85s2.56,6.57.09,8.62c-1.48,1.22-3.53,1.4-5.45,1.38-4.62-.06-9.74-.87-13.43,1.91-2.11,1.59-3.51,4.22-6,5s-5.24-.69-6.54-2.91a10.15,10.15,0,0,1-.74-7.51,11.45,11.45,0,0,1,5.96-8.22Z" fill="#ebebeb"/>
      <path id="Path_4" data-name="Path 4" d="M69.28,338.08c3.25,4.64,9.57,3.11,12.5.27s4.17-6.94,5.29-10.85c2.58-8.95,5.17-18.34,3.26-27.45a15.19,15.19,0,0,0-3.51-7.46,8,8,0,0,0-7.54-2.51c-3.19.84-5.17,4-6.6,6.93a65.29,65.29,0,0,0-6.46,28.07c0,4.53.51,9.27,3.06,13" fill="#ebebeb"/>
      <path id="Path_5" data-name="Path 5" d="M60.36,344.74c3.53-4.19,4.2-10.29,2.63-15.54s-5.12-9.71-9.21-13.36a49.6,49.6,0,0,0-16.48-9.72,17.579,17.579,0,0,0-7.42-1.26,7.77,7.77,0,0,0-6.22,3.76c-1.74,3.31-.07,7.32,1.73,10.6a125.866,125.866,0,0,0,10.82,16.49c3.25,4.18,7,8.31,11.91,10.2s10.09,1.67,12.71-1.76" fill="#ebebeb"/>
      <path id="Path_6" data-name="Path 6" d="M69.06,408.1a10.07,10.07,0,0,0,.3-2.1c.15-1.54.33-3.47.56-5.76a84,84,0,0,1,1.29-8.44,64.618,64.618,0,0,1,3.07-10,37,37,0,0,1,5.09-9,19.22,19.22,0,0,1,6.43-5.35,18.1,18.1,0,0,1,5.42-1.68,9.883,9.883,0,0,0,2.1-.31,9.721,9.721,0,0,0-2.13,0,16.37,16.37,0,0,0-5.65,1.47,18.94,18.94,0,0,0-6.79,5.4,35.67,35.67,0,0,0-5.28,9.19,61.149,61.149,0,0,0-3,10.13,73.347,73.347,0,0,0-1.13,8.55c-.18,2.45-.25,4.43-.28,5.8a10,10,0,0,0,0,2.1Z" fill="#e0e0e0"/>
      <path id="Path_7" data-name="Path 7" d="M69.46,403.68a4.25,4.25,0,0,0,.06-1v-2.8c0-2.43,0-5.95.12-10.29.22-8.68,1-18,2.41-31.19,1.37-12.39,3.2-26.8,5.14-36.17.41-2.13.83-4.05,1.23-5.73s.69-3.14,1-4.31.48-2,.66-2.72a4.1,4.1,0,0,0,.17-1,4,4,0,0,0-.34.92c-.22.71-.49,1.59-.82,2.68s-.73,2.61-1.15,4.28-.9,3.59-1.35,5.72a317,317,0,0,0-5.41,33.56c-1.44,13.2-2.09,25.22-2.15,33.92,0,4.35,0,7.88.15,10.31.07,1.13.13,2.06.17,2.79a4.31,4.31,0,0,0,.11,1.03Z" fill="#e0e0e0"/>
      <path id="Path_8" data-name="Path 8" d="M69.52,380.5a18.8,18.8,0,0,0,0-2.93c-.11-1.88-.37-4.59-.9-7.92A104.218,104.218,0,0,0,66,358.11a95.33,95.33,0,0,0-4.83-13.66A72.619,72.619,0,0,0,47,322.39a35.083,35.083,0,0,0-3.34-3.1c-.51-.44-1-.87-1.42-1.21L41,317.19a17.72,17.72,0,0,0-2.47-1.58c-.14.19,3.49,2.33,8.07,7.2a76.6,76.6,0,0,1,13.82,22,106.144,106.144,0,0,1,4.85,13.53q1.65,5.638,2.73,11.42c.6,3.29,1,6,1.16,7.84A18.359,18.359,0,0,0,69.52,380.5Z" fill="#e0e0e0"/>
      <path id="Path_9" data-name="Path 9" d="M45.56,417.86l2.32,31.83H88.77l2.32-31.83Z" fill="#ebebeb"/>
      <rect id="Rectangle_9" data-name="Rectangle 9" width="54.35" height="12.54" transform="translate(41.61 405.32)" fill="#ebebeb"/>
      <path id="Path_10" data-name="Path 10" d="M41.61,448.47v3.47H95.07v-3.47Z" fill="#e0e0e0"/>
      <path id="Path_11" data-name="Path 11" d="M46.67,457.68l-2.5-6.12H93.12l-2.92,6.12Z" fill="#e0e0e0"/>
      <path id="Path_12" data-name="Path 12" d="M90.33,428.26a1.479,1.479,0,0,1-.19.3c-.16.21-.37.48-.61.81l-2.38,3-.11.14-.1-.14-5.85-8.09h.33l-5.76,8.15-.18.26-.2-.24-6.83-8.13h.39l-.37.48-6.11,7.65-.21.26-.18-.27-5.77-8.15h.34l-7.1,8.08-.12.15-.1-.17L47,428.67c-.24-.4-.42-.73-.57-1a1.549,1.549,0,0,1-.18-.36,1.539,1.539,0,0,1,.24.32l.63.95,2.33,3.67h-.22l7-8.18.17-.21.16.22,5.82,8.12H62l6.09-7.67c.13-.16.26-.32.37-.47l.2-.25.2.24,6.81,8.15h-.38l5.82-8.11.17-.24.16.24c2.31,3.29,4.27,6.08,5.73,8.18h-.21l2.48-3c.27-.31.49-.56.66-.77a2.268,2.268,0,0,1,.23-.24Z" fill="#f5f5f5"/>
      <path id="Path_13" data-name="Path 13" d="M91.66,417.65c0,.14-10.25.26-22.88.26s-22.88-.12-22.88-.26,10.24-.25,22.88-.25S91.66,417.51,91.66,417.65Z" fill="#f5f5f5"/>
      <g id="Group_2" data-name="Group 2" transform="translate(-74.41 1)">
        <rect id="Rectangle_10" data-name="Rectangle 10" width="8.38" height="41.7" transform="matrix(1, -0.005, 0.005, 1, 370.044, 56.847)" fill="#e0e0e0"/>
        <rect id="Rectangle_11" data-name="Rectangle 11" width="21.7" height="23.02" transform="matrix(1, -0.005, 0.005, 1, 297.445, 57.03)" fill="#ebebeb"/>
        <rect id="Rectangle_12" data-name="Rectangle 12" width="21.7" height="23.02" transform="matrix(1, -0.005, 0.005, 1, 319.044, 56.913)" fill="#f5f5f5"/>
        <path id="Path_14" data-name="Path 14" d="M297.47,63.4q21.64.18,43.3-.2a.23.23,0,1,0,0-.46c-14.42-.08-28.88,0-43.3.27a.2.2,0,0,0,0,.39Z" fill="#e0e0e0"/>
        <rect id="Rectangle_13" data-name="Rectangle 13" width="39.43" height="18.76" transform="matrix(1, -0.005, 0.005, 1, 283.918, 79.763)" fill="#ebebeb"/>
        <rect id="Rectangle_14" data-name="Rectangle 14" width="39.43" height="18.76" transform="matrix(1, -0.005, 0.005, 1, 323.157, 79.551)" fill="#f5f5f5"/>
        <path id="Path_15" data-name="Path 15" d="M283.94,85c26.19.29,52.47,0,78.67-.39a.23.23,0,1,0,0-.46c-26.19-.14-52.48-.13-78.67.45a.2.2,0,1,0,0,.4Z" fill="#e0e0e0"/>
        <rect id="Rectangle_15" data-name="Rectangle 15" width="152.76" height="6.72" transform="translate(269.19 98.54)" fill="#e0e0e0"/>
        <rect id="Rectangle_16" data-name="Rectangle 16" width="6.2" height="22.93" transform="translate(294.2 101.77)" fill="#e0e0e0"/>
        <rect id="Rectangle_17" data-name="Rectangle 17" width="6.2" height="22.93" transform="translate(386.77 101.77)" fill="#e0e0e0"/>
        <rect id="Rectangle_18" data-name="Rectangle 18" width="8.38" height="57.35" transform="matrix(1, -0.005, 0.005, 1, 378.22, 41.293)" fill="#ebebeb"/>
        <rect id="Rectangle_19" data-name="Rectangle 19" width="13.02" height="46.48" transform="matrix(1, -0.005, 0.005, 1, 386.667, 51.997)" fill="#f5f5f5"/>
        <path id="Path_16" data-name="Path 16" d="M399.6,60.9a92.248,92.248,0,0,1-13,0,96.426,96.426,0,0,1,13,0Z" fill="#e0e0e0"/>
        <path id="Path_17" data-name="Path 17" d="M399.6,59a48.59,48.59,0,0,1-6.51.22,48.72,48.72,0,0,1-6.51-.22,92.249,92.249,0,0,1,13,0Z" fill="#e0e0e0"/>
        <path id="Path_18" data-name="Path 18" d="M399.6,91.43a92.248,92.248,0,0,1-13,0,96.426,96.426,0,0,1,13,0Z" fill="#e0e0e0"/>
        <path id="Path_19" data-name="Path 19" d="M399.6,89.48a96.43,96.43,0,0,1-13,0,92.253,92.253,0,0,1,13,0Z" fill="#e0e0e0"/>
        <path id="Path_20" data-name="Path 20" d="M393.3,85.22c-.12,0-.22-4.69-.22-10.47s.1-10.48.22-10.48.23,4.69.23,10.48S393.43,85.22,393.3,85.22Z" fill="#e0e0e0"/>
        <rect id="Rectangle_20" data-name="Rectangle 20" width="14.17" height="35.08" transform="translate(399.75 63.36)" fill="#ebebeb"/>
        <circle id="Ellipse_1" data-name="Ellipse 1" cx="2.41" cy="2.41" r="2.41" transform="translate(379.87 48.65)" fill="#e0e0e0"/>
        <rect id="Rectangle_21" data-name="Rectangle 21" width="1.49" height="34.12" transform="translate(381.54 57.69)" fill="#e0e0e0"/>
      </g>
    </g>
    <g id="freepik--Floor--inject-2">
      <path id="Path_21" data-name="Path 21" d="M464.66,459.35c0,.15-96.12.26-214.65.26s-214.67-.11-214.67-.26,96.1-.26,214.67-.26S464.66,459.21,464.66,459.35Z" fill="#263238"/>
    </g>
    <g id="heart" transform="translate(87.552 157.161)">
      <g id="_01" data-name="01" transform="translate(20.001 19.999)">
        <path id="Path_35" data-name="Path 35" d="M176.75,16.2A71.642,71.642,0,0,1,178.976,34a135.328,135.328,0,0,1-6.591,41.949C152.361,139.314,90.641,177.207,60.1,187.6a27.637,27.637,0,0,1-15.715,0,167.007,167.007,0,0,1-29.433-14.054,12.718,12.718,0,0,1-2.423-19.867L155.506,10.7a12.691,12.691,0,0,1,21.244,5.5Z" transform="translate(83.997 60.293)" fill="#a97900" stroke="#3b3b3b" stroke-width="6"/>
        <path id="Path_36" data-name="Path 36" d="M271.693,4.785a9.5,9.5,0,0,0-13.441,0L228.6,34.439a68.327,68.327,0,0,0-34.09-8.993,70.323,70.323,0,0,0-56.27,28.261A70.36,70.36,0,0,0,11.5,96.29a135.329,135.329,0,0,0,6.59,41.949A161.086,161.086,0,0,0,59.337,203.7L4.784,258.253a9.5,9.5,0,1,0,13.441,13.441L271.694,18.226a9.5,9.5,0,0,0,0-13.441Z" transform="translate(-2 -2)" fill="#f1ad00" stroke="#3b3b3b" stroke-width="6"/>
      </g>
    </g>
  </g>
</svg>
